<?xml version="1.0" encoding="UTF-8"?>
<svg id="Layer_1" data-name="Layer 1" xmlns="http://www.w3.org/2000/svg" viewBox="560 110 1960 560">
  <defs>
    <style>
      .cls-1 {
        fill: #fff;
      }
    </style>
  </defs>
  <g>
    <polygon class="cls-1" points="728.18 256.06 728.18 219.32 728.18 194.37 728.18 187.11 634.27 187.11 634.27 219.32 695.97 219.32 695.97 288.27 703.68 288.27 728.18 288.27 785.79 288.27 785.79 256.06 728.18 256.06"/>
    <polygon class="cls-1" points="601.84 342.82 638.58 342.82 663.53 342.82 670.79 342.82 670.79 248.92 638.58 248.92 638.58 310.61 569.63 310.61 569.63 318.32 569.63 342.82 569.63 400.43 601.84 400.43 601.84 342.82"/>
    <polygon class="cls-1" points="658.7 526.09 695.44 526.09 720.39 526.09 727.65 526.09 727.65 432.19 695.44 432.19 695.44 493.88 626.49 493.88 626.49 501.59 626.49 526.09 626.49 583.7 658.7 583.7 658.7 526.09"/>
    <polygon class="cls-1" points="760.08 581.51 760.08 618.26 760.08 643.21 760.08 650.46 853.99 650.46 853.99 618.26 792.29 618.26 792.29 549.3 784.58 549.3 760.08 549.3 702.47 549.3 702.47 581.51 760.08 581.51"/>
    <polygon class="cls-1" points="938.06 517.36 938.06 554.1 938.06 579.05 938.06 586.31 1031.96 586.31 1031.96 554.1 970.27 554.1 970.27 485.15 962.56 485.15 938.06 485.15 880.45 485.15 880.45 517.36 938.06 517.36"/>
    <polygon class="cls-1" points="848.96 345.09 885.7 345.09 910.65 345.09 917.91 345.09 917.91 251.19 885.7 251.19 885.7 312.88 816.75 312.88 816.75 320.59 816.75 345.09 816.75 399.15 848.96 399.15 848.96 345.09"/>
    <polygon class="cls-1" points="972.58 283.58 1009.32 283.58 1034.27 283.58 1041.53 283.58 1041.53 189.68 1009.32 189.68 1009.32 251.38 940.37 251.38 940.37 259.09 940.37 283.58 940.37 341.2 972.58 341.2 972.58 283.58"/>
    <polygon class="cls-1" points="1025.05 462.62 1061.79 462.62 1086.74 462.62 1094 462.62 1094 368.72 1061.79 368.72 1061.79 430.41 992.84 430.41 992.84 438.12 992.84 462.62 992.84 520.23 1025.05 520.23 1025.05 462.62"/>
    <polygon class="cls-1" points="917.46 198.87 917.46 162.12 917.46 137.17 917.46 129.91 823.56 129.91 823.56 162.12 885.25 162.12 885.25 231.07 892.96 231.07 917.46 231.07 975.07 231.07 975.07 198.87 917.46 198.87"/>
    <polygon class="cls-1" points="821.85 227.11 785.11 227.11 760.16 227.11 752.9 227.11 752.9 133.2 785.11 133.2 785.11 194.9 854.06 194.9 854.06 202.61 854.06 227.11 854.06 284.72 821.85 284.72 821.85 227.11"/>
    <polygon class="cls-1" points="887.78 579.54 851.04 579.54 826.09 579.54 818.83 579.54 818.83 485.64 851.04 485.64 851.04 547.34 919.99 547.34 919.99 555.05 919.99 579.54 919.99 637.16 887.78 637.16 887.78 579.54"/>
    <polygon class="cls-1" points="641.53 434.91 641.53 398.17 641.53 373.21 641.53 365.96 735.44 365.96 735.44 398.17 673.74 398.17 673.74 467.12 666.03 467.12 641.53 467.12 583.92 467.12 583.92 434.91 641.53 434.91"/>
    <polygon class="cls-1" points="997.98 373.82 997.98 337.08 997.98 312.12 997.98 304.87 1091.88 304.87 1091.88 337.08 1030.19 337.08 1030.19 406.03 1022.48 406.03 997.98 406.03 940.37 406.03 940.37 373.82 997.98 373.82"/>
    <polygon class="cls-1" points="760.76 398.77 792.97 398.77 792.97 312.99 785.26 312.99 760.76 312.99 703.15 312.99 703.15 345.2 760.76 345.2 760.76 398.77"/>
    <polygon class="cls-1" points="844.48 457.97 844.48 425.76 758.7 425.76 758.7 433.47 758.7 457.97 758.7 515.58 790.91 515.58 790.91 457.97 844.48 457.97"/>
    <polygon class="cls-1" points="907.29 373.65 875.08 373.65 875.08 459.43 882.79 459.43 907.29 459.43 964.9 459.43 964.9 427.22 907.29 427.22 907.29 373.65"/>
  </g>
  <g>
    <g>
      <path class="cls-1" d="M1421.26,473.51l-3.14,4.94h-72.32l-50.31-70.08-49.86,70.08h-66.49l-3.14-4.94,84.01-107.81-81.31-106.91,3.14-4.94h72.32l48.07,68.28,47.17-68.28h66.48l3.14,4.94-81.31,106.47,83.56,108.26Z"/>
      <path class="cls-1" d="M1644.07,343.24v135.22h-56.15v-21.11c-18.87,16.62-43.58,26.5-70.98,26.5-53.01,0-88.5-28.75-88.5-71.43,0-45.82,38.63-76.37,96.58-76.37,19.32,0,37.73,4.49,54.81,10.78v-10.33c0-22.46-22.46-37.28-51.66-37.28-19.32,0-40.43,7.19-54.8,18.42h-4.94l-22.46-35.04v-5.39c24.71-19.32,62.89-28.75,92.09-28.75,56.6,0,106.02,25.61,106.02,94.79ZM1581.18,400.74v-12.13c-9.88-4.49-27.4-11.23-45.82-11.23-25.16,0-41.33,13.03-41.33,31.9s15.72,30.55,39.08,30.55c26.95,0,48.07-18.42,48.07-39.08Z"/>
      <path class="cls-1" d="M1920.33,345.48v132.97h-69.63v-128.03c0-25.16-14.82-43.13-41.33-43.13-24.71,0-41.78,17.07-41.78,43.13v128.03h-69.63v-224.61h58.4v28.3c15.72-19.77,39.08-33.69,70.53-33.69,56.15,0,93.44,39.98,93.44,97.03Z"/>
      <path class="cls-1" d="M1966.59,175.68c0-23.81,18.87-43.13,42.68-43.13s43.13,19.32,43.13,43.13-19.32,42.68-43.13,42.68-42.68-19.32-42.68-42.68ZM1974.67,253.84h69.18v224.61h-69.18v-224.61Z"/>
      <path class="cls-1" d="M2260.82,460.48l-2.25,5.39c-15.27,11.23-35.04,17.97-56.6,17.97-44.02,0-83.56-25.16-83.56-84v-94.79h-39.08v-51.21h39.08v-66.49l63.34-6.74,5.39,3.14v70.08h66.04v51.21h-66.04v88.05c0,23.36,11.23,31.9,26.95,31.9,7.19,0,16.17-3.14,22.46-8.54l5.39,2.25,18.87,41.78Z"/>
      <path class="cls-1" d="M2343.92,381.42c3.14,34.14,28.75,51.21,59.75,51.21,22.91,0,46.72-8.53,61.99-24.71h4.94l31,29.65v5.39c-25.16,29.65-66.49,40.88-101.08,40.88-70.53,0-123.99-47.17-123.99-117.25s49.41-118.15,119.94-118.15c33.24,0,61.99,11.68,82.66,31.45,20.66,20.66,32.79,49.41,32.79,83.56,0,6.74-.45,12.58-1.35,17.97h-166.66ZM2344.37,341.89h100.18c-1.8-12.13-6.74-22.91-13.93-30.1-8.98-9.43-21.56-14.38-35.94-14.38-27.85,0-46.72,17.52-50.31,44.47Z"/>
    </g>
  </g>
</svg>